<?xml version="1.0" encoding="utf-8"?>
<!-- Generator: Adobe Illustrator 16.0.0, SVG Export Plug-In . SVG Version: 6.00 Build 0)  -->
<!DOCTYPE svg PUBLIC "-//W3C//DTD SVG 1.1//EN" "http://www.w3.org/Graphics/SVG/1.1/DTD/svg11.dtd">
<svg version="1.1" id="Layer_1" xmlns="http://www.w3.org/2000/svg" xmlns:xlink="http://www.w3.org/1999/xlink" x="0px" y="0px"
	 width="595.281px" height="841.891px" viewBox="0 0 595.281 841.891" enable-background="new 0 0 595.281 841.891"
	 xml:space="preserve">
<g>
	<g>
		<path fill="#E8E8E8" d="M407.279,419.899c9.186-101.85-26.393-205.675-101.035-280.317c-4.535-4.534-12.557-4.534-17.091,0
			c-74.643,74.643-110.22,178.352-101.035,280.317c-25.811,27.787-39.995,63.597-39.995,101.732
			c0,38.483,14.649,75.107,41.274,103.011c6.511,6.86,23.137,3.721,20.462-11.394c-1.395-7.906-3.139-15.58-3.139-23.137
			c0-18.835,5.697-36.74,16.277-51.854c1.744,0.93,3.721,1.512,5.813,1.512h137.774c2.094,0,4.07-0.582,5.814-1.512
			c10.58,15.114,16.275,33.02,16.275,51.854c0,7.557-1.977,15.114-3.139,23.137c-2.441,16.742,14.998,17.323,20.463,11.394
			c26.51-28.02,41.275-64.527,41.275-103.011C447.158,483.496,433.089,447.57,407.279,419.899z M297.64,165.626
			c21.625,23.253,39.297,49.413,53.018,77.2H244.739C258.342,214.923,276.015,188.879,297.64,165.626z M183.7,573.719
			c-7.441-16.161-11.278-33.833-11.278-52.087c0-24.648,7.092-48.25,20.347-68.48c0.116,0.93,12.789,49.413,17.672,61.854
			C195.908,531.747,186.723,551.976,183.7,573.719L183.7,573.719z M358.564,515.469H236.717
			c-34.182-80.224-33.833-169.864-2.791-248.576h127.427C392.396,345.605,392.746,435.246,358.564,515.469z M384.957,515.005
			c6.742-17.324,17.555-61.156,17.672-61.854c13.254,20.113,20.346,43.716,20.346,68.48c0,18.254-3.953,35.926-11.277,52.087
			C408.558,551.976,399.373,531.747,384.957,515.005L384.957,515.005z"/>
		<path fill="#E8E8E8" d="M248.692,559.999c-6.744,0-12.092,5.465-12.092,12.092v60.807c0,6.744,5.464,12.092,12.092,12.092
			c6.627,0,12.091-5.464,12.091-12.092v-60.807C260.784,565.347,255.319,559.999,248.692,559.999z"/>
		<path fill="#E8E8E8" d="M297.64,559.999c-3.372,0-6.395,1.396-8.604,3.604c0,0,0,0-0.116,0.116
			c-1.396,1.396-2.442,3.256-3.023,5.349c-0.233,1.046-0.465,2.093-0.465,3.255v121.498c0,0.93,0.116,1.86,0.349,2.79
			c1.279,5.349,6.045,9.302,11.743,9.302c5.696,0,10.464-3.953,11.743-9.302c0.232-0.93,0.348-1.86,0.348-2.79v-121.73
			c0-1.162-0.115-2.209-0.465-3.255C307.871,563.719,303.22,559.999,297.64,559.999z"/>
		<path fill="#E8E8E8" d="M346.587,559.999c-6.742,0-12.092,5.465-12.092,12.092v60.807c0,6.744,5.465,12.092,12.092,12.092
			s12.092-5.464,12.092-12.092v-60.807C358.796,565.347,353.332,559.999,346.587,559.999z"/>
	</g>
</g>
</svg>
